Coordinates
version=1
nRows=11
nColumns=36
inDegrees=yes

Units are S.I. units (second, meters, Newtons, ...)
If the header above contains a line with 'inDegrees', this indicates whether rotational values are in degrees (yes) or radians (no).

endheader
time	pelvis_tilt	pelvis_list	pelvis_rotation	pelvis_tx	pelvis_ty	pelvis_tz	hip_flexion_r	hip_adduction_r	hip_rotation_r	knee_angle_r	knee_angle_r_beta	ankle_angle_r	subtalar_angle_r	mtp_angle_r	hip_flexion_l	hip_adduction_l	hip_rotation_l	knee_angle_l	knee_angle_l_beta	ankle_angle_l	subtalar_angle_l	mtp_angle_l	lumbar_extension	lumbar_bending	lumbar_rotation	arm_flex_r	arm_add_r	arm_rot_r	elbow_flex_r	pro_sup_r	arm_flex_l	arm_add_l	arm_rot_l	elbow_flex_l	pro_sup_l
      0.35000000	      1.21080455	     -2.86226952	     -3.78184521	      0.25683466	      0.96096583	     -0.21469790	      0.18143132	      7.33595324	      7.06038473	      7.08224410	      0.12360848	      6.98175392	     -8.95885527	     -6.73966451	     23.18791877	     -4.09718457	     -2.07281480	     52.02186189	      0.90795277	     -1.26034043	    -16.18585150	     -6.73966451	     -8.79811713	      6.89098634	      2.58455810	     -0.46980797	     -7.49588738	     -4.88325777	     28.50056418	    110.70954391	      2.75514185	     -4.64809658	      1.44078367	     28.05432417	    106.85298559
      0.36000000	      0.98549138	     -2.86771882	     -3.91271580	      0.26732464	      0.96082529	     -0.21344387	     -0.56193804	      7.37074466	      7.13778016	      6.60565747	      0.11529047	      7.27445240	     -8.86703998	     -6.74472313	     24.17201588	     -4.19571076	     -2.10724854	     49.20499525	      0.85878918	     -1.28259101	    -15.97789955	     -6.74472313	     -8.71609579	      6.52583427	      2.87553593	     -0.32177235	     -7.62456602	     -4.77885720	     28.77687493	    110.71338078	      2.86143742	     -4.62027222	      1.15924528	     28.10244832	    106.84140793
      0.37000000	      1.35667154	     -2.65043427	     -4.14583383	      0.27791602	      0.96142907	     -0.21204880	     -2.08305100	      7.09523403	      7.53634676	      5.89284116	      0.10284948	      7.88910465	     -8.43732510	     -6.76111936	     24.17336599	     -4.06852337	     -2.47711463	     45.83276087	      0.79993258	     -1.98697673	    -16.19195927	     -6.76111936	     -9.43554706	      5.80519607	      3.31732645	     -0.16964317	     -7.73148318	     -4.47746413	     29.46803163	    110.69205137	      3.15505819	     -4.49135602	     -0.04756308	     28.26911325	    106.74948596
      0.38000000	      1.38159098	     -2.54025305	     -4.33189863	      0.28849348	      0.96115173	     -0.21070964	     -3.09569294	      6.96550090	      7.78800820	      5.43638418	      0.09488280	      8.41847928	     -8.19980008	     -6.77394798	     24.54873140	     -4.06603297	     -2.76271653	     42.45969646	      0.74106150	     -2.68937018	    -16.20250231	     -6.77394798	     -9.69101033	      5.23047896	      3.59346660	      0.00484231	     -7.81374157	     -4.23819336	     29.98864400	    110.68069568	      3.27336465	     -4.42576155	     -1.05152365	     28.51315763	    106.68382589
      0.39000000	      1.47903999	     -2.51444382	     -4.45654462	      0.29915983	      0.96070362	     -0.20953612	     -4.18066429	      6.90735451	      7.85810298	      5.01943030	      0.08760559	      9.12792950	     -7.54483891	     -6.82083923	     24.74626793	     -4.08626762	     -2.98523480	     38.93855110	      0.67960592	     -3.96918850	    -16.95694815	     -6.82083923	    -10.05810561	      4.73315657	      3.52109665	      0.40934411	     -7.92390087	     -3.56178424	     30.42427736	    110.58647304	      3.06385973	     -4.11299270	     -3.70984775	     29.44143906	    106.68233644
      0.40000000	      1.66983491	     -2.53656624	     -4.65518497	      0.30986284	      0.96015089	     -0.20804669	     -5.37297976	      6.91915798	      8.24272455	      4.63794328	      0.08094738	      9.72671148	     -7.49823189	     -6.83606697	     24.71623895	     -4.28438117	     -3.46524258	     35.33191964	      0.61665833	     -4.40823194	    -16.19047309	     -6.83606697	    -10.52358368	      4.24882381	      3.82990825	      0.66373255	     -8.02802810	     -3.12304997	     30.80841422	    110.62787781	      3.26831342	     -4.10939250	     -4.31170024	     29.58240735	    106.71899578
      0.41000000	      1.78671834	     -2.57228294	     -4.86518618	      0.32061471	      0.95921896	     -0.20658439	     -6.47929721	      6.93459805	      8.54912240	      4.25457462	      0.07425634	     10.28895325	     -7.34729298	     -6.85152706	     24.70114394	     -4.45312406	     -3.85361865	     31.70351777	      0.55333077	     -4.87498061	    -15.39434609	     -6.85152706	    -10.90935682	      3.77398094	      4.06574817	      0.95783075	     -8.10842894	     -2.63557663	     31.24979271	    110.69355083	      3.38736876	     -4.12059944	     -5.09430466	     29.79190936	    106.71427449
      0.42000000	      1.54191508	     -2.89317636	     -4.93988862	      0.33144045	      0.95739349	     -0.20538241	     -7.11747281	      7.31038106	      8.72139578	      4.08864729	      0.07136036	     10.69905817	     -7.34562946	     -6.85525047	     25.18883624	     -4.90169866	     -4.09455653	     28.34816363	      0.49476879	     -4.99757598	    -14.65401988	     -6.85525047	    -10.81101654	      3.71853316	      4.17044137	      1.16645355	     -8.22226327	     -2.46208757	     31.54346910	    110.73495903	      3.40537502	     -4.13173214	     -5.35242575	     29.85293592	    106.69891296
      0.43000000	      1.90415946	     -2.70189898	     -5.14844764	      0.34236906	      0.95647459	     -0.20403189	     -8.48729984	      7.01333748	      9.21347478	      3.75945114	      0.06561480	     11.45871104	     -7.19838348	     -6.86309279	     24.58823776	     -4.72038026	     -4.38937893	     24.34973309	      0.42498301	     -5.42455145	    -12.99456826	     -6.86309279	    -11.47789143	      2.90034516	      4.43718030	      1.42651451	     -8.27919321	     -1.91655629	     32.03371328	    110.84976161	      3.69340551	     -4.20732673	     -6.03623214	     29.98692198	    106.63077977
      0.44000000	      2.31766661	     -2.81720629	     -5.29217529	      0.35355692	      0.95529081	     -0.20281366	     -9.96902735	      7.03341043	      9.28827293	      3.35062583	      0.05847945	     12.23627067	     -6.67035492	     -6.87772872	     24.02323899	     -4.89340010	     -4.87510023	     20.74488060	      0.36206647	     -5.13643447	    -11.33552779	     -6.87772872	    -12.18157945	      2.45801147	      4.49917022	      1.80403898	     -8.41044387	     -1.05885700	     32.40101513	    111.00090805	      3.77846194	     -4.17082698	     -7.06056170	     30.25989351	    106.54714675
      0.45000000	      2.43752771	     -2.95770206	     -5.39055925	      0.36467307	      0.95348187	     -0.20174824	    -11.00750412	      7.12494413	      9.38887379	      3.19108916	      0.05569501	     13.00144177	     -6.37591326	     -6.88896081	     23.76245985	     -5.01459955	     -4.82169648	     17.25743390	      0.30119904	     -4.79442602	     -9.72574256	     -6.88896081	    -12.53807626	      2.07415673	      4.52392399	      2.15389157	     -8.52305142	     -0.36562313	     32.65195587	    111.11101691	      3.85385847	     -4.20582114	     -7.77288281	     30.41777687	    106.49285074
